<mxfile host="app.diagrams.net" modified="2021-10-22T07:23:17.251Z" agent="5.0 (Windows NT 10.0; Win64; x64) AppleWebKit/537.36 (KHTML, like Gecko) Chrome/94.0.4606.81 Safari/537.36" etag="fckb1busgwVBaxjWgrb0" version="15.5.5" type="github">
  <diagram id="6a731a19-8d31-9384-78a2-239565b7b9f0" name="Page-1">
    <mxGraphModel dx="1422" dy="794" grid="1" gridSize="10" guides="1" tooltips="1" connect="1" arrows="1" fold="1" page="1" pageScale="1" pageWidth="1169" pageHeight="827" background="none" math="0" shadow="0">
      <root>
        <mxCell id="0" />
        <mxCell id="1" parent="0" />
        <mxCell id="hD37ep9mAxVPumg4rUH4-33" value="Actor" style="shape=umlActor;verticalLabelPosition=bottom;verticalAlign=top;html=1;outlineConnect=0;sketch=0;fillColor=#fff2cc;strokeColor=#d6b656;overflow=visible;fontFamily=Helvetica;" vertex="1" parent="1">
          <mxGeometry x="80" y="250" width="50" height="80" as="geometry" />
        </mxCell>
        <mxCell id="hD37ep9mAxVPumg4rUH4-55" value="" style="endArrow=classic;html=1;rounded=0;fontFamily=Helvetica;" edge="1" parent="1" source="hD37ep9mAxVPumg4rUH4-33" target="hD37ep9mAxVPumg4rUH4-56">
          <mxGeometry width="50" height="50" relative="1" as="geometry">
            <mxPoint x="430" y="400" as="sourcePoint" />
            <mxPoint x="170" y="200" as="targetPoint" />
            <Array as="points" />
          </mxGeometry>
        </mxCell>
        <mxCell id="hD37ep9mAxVPumg4rUH4-56" value="회원가입" style="ellipse;whiteSpace=wrap;html=1;sketch=0;fontFamily=Helvetica;opacity=90;fontSize=12;" vertex="1" parent="1">
          <mxGeometry x="270" y="80" width="120" height="80" as="geometry" />
        </mxCell>
        <mxCell id="hD37ep9mAxVPumg4rUH4-58" value="" style="endArrow=classic;html=1;rounded=0;fontFamily=Helvetica;entryX=0;entryY=0.5;entryDx=0;entryDy=0;" edge="1" parent="1" source="hD37ep9mAxVPumg4rUH4-33" target="hD37ep9mAxVPumg4rUH4-63">
          <mxGeometry width="50" height="50" relative="1" as="geometry">
            <mxPoint x="150" y="286.66666666666674" as="sourcePoint" />
            <mxPoint x="260" y="330" as="targetPoint" />
            <Array as="points" />
          </mxGeometry>
        </mxCell>
        <mxCell id="hD37ep9mAxVPumg4rUH4-59" value="" style="endArrow=classic;html=1;rounded=0;fontFamily=Helvetica;entryX=0.1;entryY=0.125;entryDx=0;entryDy=0;entryPerimeter=0;" edge="1" parent="1" source="hD37ep9mAxVPumg4rUH4-33" target="hD37ep9mAxVPumg4rUH4-64">
          <mxGeometry width="50" height="50" relative="1" as="geometry">
            <mxPoint x="160" y="296.66666666666674" as="sourcePoint" />
            <mxPoint x="220" y="370" as="targetPoint" />
            <Array as="points" />
          </mxGeometry>
        </mxCell>
        <mxCell id="hD37ep9mAxVPumg4rUH4-60" value="" style="endArrow=classic;html=1;rounded=0;fontFamily=Helvetica;" edge="1" parent="1" source="hD37ep9mAxVPumg4rUH4-33" target="hD37ep9mAxVPumg4rUH4-65">
          <mxGeometry width="50" height="50" relative="1" as="geometry">
            <mxPoint x="170" y="306.66666666666674" as="sourcePoint" />
            <mxPoint x="160" y="440" as="targetPoint" />
            <Array as="points" />
          </mxGeometry>
        </mxCell>
        <mxCell id="hD37ep9mAxVPumg4rUH4-61" value="" style="endArrow=classic;html=1;rounded=0;fontFamily=Helvetica;" edge="1" parent="1" source="hD37ep9mAxVPumg4rUH4-33" target="hD37ep9mAxVPumg4rUH4-62">
          <mxGeometry width="50" height="50" relative="1" as="geometry">
            <mxPoint x="140" y="307.4074074074074" as="sourcePoint" />
            <mxPoint x="260" y="260" as="targetPoint" />
            <Array as="points" />
          </mxGeometry>
        </mxCell>
        <mxCell id="hD37ep9mAxVPumg4rUH4-67" value="" style="edgeStyle=orthogonalEdgeStyle;rounded=0;orthogonalLoop=1;jettySize=auto;html=1;fontFamily=Helvetica;fontSize=12;" edge="1" parent="1" source="hD37ep9mAxVPumg4rUH4-62" target="hD37ep9mAxVPumg4rUH4-66">
          <mxGeometry relative="1" as="geometry" />
        </mxCell>
        <mxCell id="hD37ep9mAxVPumg4rUH4-62" value="로그인" style="ellipse;whiteSpace=wrap;html=1;sketch=0;fontFamily=Helvetica;opacity=90;" vertex="1" parent="1">
          <mxGeometry x="270" y="170" width="120" height="80" as="geometry" />
        </mxCell>
        <mxCell id="hD37ep9mAxVPumg4rUH4-69" value="" style="edgeStyle=orthogonalEdgeStyle;rounded=0;orthogonalLoop=1;jettySize=auto;html=1;fontFamily=Helvetica;fontSize=12;" edge="1" parent="1" source="hD37ep9mAxVPumg4rUH4-63" target="hD37ep9mAxVPumg4rUH4-80">
          <mxGeometry relative="1" as="geometry">
            <mxPoint x="470" y="330" as="targetPoint" />
          </mxGeometry>
        </mxCell>
        <mxCell id="hD37ep9mAxVPumg4rUH4-63" value="게시물추가" style="ellipse;whiteSpace=wrap;html=1;sketch=0;fontFamily=Helvetica;opacity=90;" vertex="1" parent="1">
          <mxGeometry x="270" y="260" width="120" height="80" as="geometry" />
        </mxCell>
        <mxCell id="hD37ep9mAxVPumg4rUH4-64" value="메인화면" style="ellipse;whiteSpace=wrap;html=1;sketch=0;fontFamily=Helvetica;opacity=90;" vertex="1" parent="1">
          <mxGeometry x="270" y="374" width="120" height="80" as="geometry" />
        </mxCell>
        <mxCell id="hD37ep9mAxVPumg4rUH4-65" value="설정" style="ellipse;whiteSpace=wrap;html=1;sketch=0;fontFamily=Helvetica;opacity=90;" vertex="1" parent="1">
          <mxGeometry x="270" y="500" width="120" height="80" as="geometry" />
        </mxCell>
        <mxCell id="hD37ep9mAxVPumg4rUH4-66" value="프로필" style="ellipse;whiteSpace=wrap;html=1;opacity=90;sketch=0;" vertex="1" parent="1">
          <mxGeometry x="470" y="180" width="100" height="60" as="geometry" />
        </mxCell>
        <mxCell id="hD37ep9mAxVPumg4rUH4-80" value="게시" style="ellipse;whiteSpace=wrap;html=1;opacity=90;sketch=0;" vertex="1" parent="1">
          <mxGeometry x="470" y="270" width="100" height="60" as="geometry" />
        </mxCell>
        <mxCell id="hD37ep9mAxVPumg4rUH4-81" value="좋아요" style="ellipse;whiteSpace=wrap;html=1;opacity=90;sketch=0;" vertex="1" parent="1">
          <mxGeometry x="470" y="360" width="100" height="60" as="geometry" />
        </mxCell>
        <mxCell id="hD37ep9mAxVPumg4rUH4-82" value="날씨정보" style="ellipse;whiteSpace=wrap;html=1;opacity=90;sketch=0;" vertex="1" parent="1">
          <mxGeometry x="470" y="480" width="100" height="60" as="geometry" />
        </mxCell>
        <mxCell id="hD37ep9mAxVPumg4rUH4-83" value="댓글" style="ellipse;whiteSpace=wrap;html=1;opacity=90;sketch=0;" vertex="1" parent="1">
          <mxGeometry x="470" y="420" width="100" height="60" as="geometry" />
        </mxCell>
        <mxCell id="hD37ep9mAxVPumg4rUH4-84" value="" style="endArrow=classic;html=1;rounded=0;fontFamily=Helvetica;" edge="1" parent="1" source="hD37ep9mAxVPumg4rUH4-64" target="hD37ep9mAxVPumg4rUH4-81">
          <mxGeometry width="50" height="50" relative="1" as="geometry">
            <mxPoint x="140" y="301.5151515151515" as="sourcePoint" />
            <mxPoint x="280" y="310" as="targetPoint" />
            <Array as="points" />
          </mxGeometry>
        </mxCell>
        <mxCell id="hD37ep9mAxVPumg4rUH4-85" value="" style="endArrow=classic;html=1;rounded=0;fontFamily=Helvetica;" edge="1" parent="1" source="hD37ep9mAxVPumg4rUH4-64" target="hD37ep9mAxVPumg4rUH4-83">
          <mxGeometry width="50" height="50" relative="1" as="geometry">
            <mxPoint x="397.1966680056821" y="427.9161969002081" as="sourcePoint" />
            <mxPoint x="482.8200008933536" y="409.93263139087287" as="targetPoint" />
            <Array as="points" />
          </mxGeometry>
        </mxCell>
        <mxCell id="hD37ep9mAxVPumg4rUH4-86" value="" style="endArrow=classic;html=1;rounded=0;fontFamily=Helvetica;" edge="1" parent="1" source="hD37ep9mAxVPumg4rUH4-64" target="hD37ep9mAxVPumg4rUH4-82">
          <mxGeometry width="50" height="50" relative="1" as="geometry">
            <mxPoint x="407.1966680056821" y="437.9161969002081" as="sourcePoint" />
            <mxPoint x="492.8200008933536" y="419.93263139087287" as="targetPoint" />
            <Array as="points" />
          </mxGeometry>
        </mxCell>
        <mxCell id="hD37ep9mAxVPumg4rUH4-87" value="프로필편집" style="ellipse;whiteSpace=wrap;html=1;opacity=90;sketch=0;" vertex="1" parent="1">
          <mxGeometry x="470" y="550" width="100" height="60" as="geometry" />
        </mxCell>
        <mxCell id="hD37ep9mAxVPumg4rUH4-88" value="회원정보수정" style="ellipse;whiteSpace=wrap;html=1;opacity=90;sketch=0;" vertex="1" parent="1">
          <mxGeometry x="470" y="610" width="100" height="60" as="geometry" />
        </mxCell>
        <mxCell id="hD37ep9mAxVPumg4rUH4-89" value="로그아웃" style="ellipse;whiteSpace=wrap;html=1;opacity=90;sketch=0;" vertex="1" parent="1">
          <mxGeometry x="470" y="670" width="100" height="60" as="geometry" />
        </mxCell>
        <mxCell id="hD37ep9mAxVPumg4rUH4-90" value="프로필사진변경" style="ellipse;whiteSpace=wrap;html=1;opacity=90;sketch=0;" vertex="1" parent="1">
          <mxGeometry x="630" y="505" width="90" height="50" as="geometry" />
        </mxCell>
        <mxCell id="hD37ep9mAxVPumg4rUH4-92" value="상태메시지변경" style="ellipse;whiteSpace=wrap;html=1;opacity=90;sketch=0;" vertex="1" parent="1">
          <mxGeometry x="630" y="555" width="90" height="50" as="geometry" />
        </mxCell>
        <mxCell id="hD37ep9mAxVPumg4rUH4-93" value="해시태그" style="ellipse;whiteSpace=wrap;html=1;opacity=90;sketch=0;" vertex="1" parent="1">
          <mxGeometry x="630" y="605" width="90" height="50" as="geometry" />
        </mxCell>
        <mxCell id="hD37ep9mAxVPumg4rUH4-94" value="휴대폰번호변경" style="ellipse;whiteSpace=wrap;html=1;opacity=90;sketch=0;" vertex="1" parent="1">
          <mxGeometry x="630" y="680" width="90" height="50" as="geometry" />
        </mxCell>
        <mxCell id="hD37ep9mAxVPumg4rUH4-95" value="비밀번호변경" style="ellipse;whiteSpace=wrap;html=1;opacity=90;sketch=0;" vertex="1" parent="1">
          <mxGeometry x="630" y="730" width="90" height="50" as="geometry" />
        </mxCell>
        <mxCell id="hD37ep9mAxVPumg4rUH4-96" value="" style="endArrow=classic;html=1;rounded=0;fontFamily=Helvetica;" edge="1" parent="1" source="hD37ep9mAxVPumg4rUH4-65" target="hD37ep9mAxVPumg4rUH4-87">
          <mxGeometry width="50" height="50" relative="1" as="geometry">
            <mxPoint x="390.8990802424794" y="461.1794830539177" as="sourcePoint" />
            <mxPoint x="489.07216537688623" y="502.76722752711" as="targetPoint" />
            <Array as="points" />
          </mxGeometry>
        </mxCell>
        <mxCell id="hD37ep9mAxVPumg4rUH4-97" value="" style="endArrow=classic;html=1;rounded=0;fontFamily=Helvetica;" edge="1" parent="1" source="hD37ep9mAxVPumg4rUH4-65" target="hD37ep9mAxVPumg4rUH4-88">
          <mxGeometry width="50" height="50" relative="1" as="geometry">
            <mxPoint x="397.19666800568507" y="562.0838030997927" as="sourcePoint" />
            <mxPoint x="482.8200008933536" y="580.067368609127" as="targetPoint" />
            <Array as="points" />
          </mxGeometry>
        </mxCell>
        <mxCell id="hD37ep9mAxVPumg4rUH4-98" value="" style="endArrow=classic;html=1;rounded=0;fontFamily=Helvetica;" edge="1" parent="1" source="hD37ep9mAxVPumg4rUH4-65" target="hD37ep9mAxVPumg4rUH4-89">
          <mxGeometry width="50" height="50" relative="1" as="geometry">
            <mxPoint x="407.19666800568507" y="572.0838030997927" as="sourcePoint" />
            <mxPoint x="492.8200008933536" y="590.067368609127" as="targetPoint" />
            <Array as="points" />
          </mxGeometry>
        </mxCell>
        <mxCell id="hD37ep9mAxVPumg4rUH4-99" value="" style="endArrow=classic;html=1;rounded=0;fontFamily=Helvetica;" edge="1" parent="1" source="hD37ep9mAxVPumg4rUH4-87" target="hD37ep9mAxVPumg4rUH4-90">
          <mxGeometry width="50" height="50" relative="1" as="geometry">
            <mxPoint x="399.0422184681729" y="416.8814346527736" as="sourcePoint" />
            <mxPoint x="481.0725107506655" y="406.18031443149493" as="targetPoint" />
            <Array as="points" />
          </mxGeometry>
        </mxCell>
        <mxCell id="hD37ep9mAxVPumg4rUH4-101" value="" style="endArrow=classic;html=1;rounded=0;fontFamily=Helvetica;" edge="1" parent="1" source="hD37ep9mAxVPumg4rUH4-87" target="hD37ep9mAxVPumg4rUH4-92">
          <mxGeometry width="50" height="50" relative="1" as="geometry">
            <mxPoint x="574.149213899711" y="575.9179231526782" as="sourcePoint" />
            <mxPoint x="646.0844974025581" y="552.5533879346588" as="targetPoint" />
            <Array as="points" />
          </mxGeometry>
        </mxCell>
        <mxCell id="hD37ep9mAxVPumg4rUH4-102" value="" style="endArrow=classic;html=1;rounded=0;fontFamily=Helvetica;" edge="1" parent="1" source="hD37ep9mAxVPumg4rUH4-87" target="hD37ep9mAxVPumg4rUH4-93">
          <mxGeometry width="50" height="50" relative="1" as="geometry">
            <mxPoint x="584.149213899711" y="585.9179231526782" as="sourcePoint" />
            <mxPoint x="656.0844974025581" y="562.5533879346588" as="targetPoint" />
            <Array as="points" />
          </mxGeometry>
        </mxCell>
        <mxCell id="hD37ep9mAxVPumg4rUH4-103" value="" style="endArrow=classic;html=1;rounded=0;fontFamily=Helvetica;" edge="1" parent="1" source="hD37ep9mAxVPumg4rUH4-88" target="hD37ep9mAxVPumg4rUH4-94">
          <mxGeometry width="50" height="50" relative="1" as="geometry">
            <mxPoint x="574.149213899711" y="604.0820768473216" as="sourcePoint" />
            <mxPoint x="646.0844974025581" y="627.4466120653415" as="targetPoint" />
            <Array as="points" />
          </mxGeometry>
        </mxCell>
        <mxCell id="hD37ep9mAxVPumg4rUH4-104" value="" style="endArrow=classic;html=1;rounded=0;fontFamily=Helvetica;" edge="1" parent="1" source="hD37ep9mAxVPumg4rUH4-88" target="hD37ep9mAxVPumg4rUH4-95">
          <mxGeometry width="50" height="50" relative="1" as="geometry">
            <mxPoint x="584.149213899711" y="614.0820768473216" as="sourcePoint" />
            <mxPoint x="656.0844974025581" y="637.4466120653415" as="targetPoint" />
            <Array as="points" />
          </mxGeometry>
        </mxCell>
      </root>
    </mxGraphModel>
  </diagram>
</mxfile>
